<svg width="21" height="21" viewBox="0 0 21 21" fill="none" xmlns="http://www.w3.org/2000/svg">
<path d="M12.8315 0.185212C12.2886 0.242355 11.7743 0.613783 11.4886 1.15664C11.1172 1.8995 8.37434 7.41378 7.83149 7.95664C7.28863 8.4995 6.57434 8.75664 5.77434 8.75664V20.1852H15.7743C16.3743 20.1852 16.8886 19.8138 17.1172 19.2995C17.1172 19.2995 20.0601 10.9852 20.0601 10.1852C20.0601 9.38521 19.4315 8.75664 18.6315 8.75664H14.3458C13.5458 8.75664 12.9172 8.04236 12.9172 7.32807C12.9172 6.61378 14.0315 2.81378 14.2601 2.07093C14.4886 1.32807 14.1172 0.528069 13.3743 0.270926C13.1743 0.213783 13.0315 0.15664 12.8315 0.185212ZM0.0600586 8.75664V20.1852H2.9172V8.75664H0.0600586Z" fill="white"/>
</svg>
